Coordinates
version=1
nRows=7
nColumns=40
inDegrees=yes

Units are S.I. units (second, meters, Newtons, ...)
If the header above contains a line with 'inDegrees', this indicates whether rotational values are in degrees (yes) or radians (no).

endheader
time	pelvis_tilt	pelvis_list	pelvis_rotation	pelvis_tx	pelvis_ty	pelvis_tz	hip_flexion_r	hip_adduction_r	hip_rotation_r	knee_angle_r	knee_angle_r_beta	ankle_angle_r	subtalar_angle_r	mtp_angle_r	hip_flexion_l	hip_adduction_l	hip_rotation_l	knee_angle_l	knee_angle_l_beta	ankle_angle_l	subtalar_angle_l	mtp_angle_l	lumbar_extension	lumbar_bending	lumbar_rotation	arm_flex_r	arm_add_r	arm_rot_r	elbow_flex_r	pro_sup_r	wrist_flex_r	wrist_dev_r	arm_flex_l	arm_add_l	arm_rot_l	elbow_flex_l	pro_sup_l	wrist_flex_l	wrist_dev_l
      0.00500000	      1.36759298	     -1.74237057	    -88.84624048	      1.22028162	      0.94231959	      0.32005827	     -3.09930112	     -6.17417471	    -19.03470720	      8.52632979	      0.14881253	      4.74956781	      5.46324575	      0.00000000	     -2.49970091	     -2.41703331	    -20.04010838	     10.14086140	      0.17699142	      6.22371459	     13.27431366	      0.00000000	     -0.38524739	     -0.44227849	     -0.39087114	     24.09617112	    -10.85083215	     24.09617112	     78.31247709	     45.04723033	      0.00000000	      0.00000000	     24.09617112	    -10.85083215	     24.09617112	     78.31247709	     45.04723033	      0.00000000	      0.00000000
      0.01000000	      1.34613907	     -1.70819234	    -88.85129445	      1.22031720	      0.94226650	      0.32004632	     -3.04725773	     -6.16819290	    -19.07541262	      8.55530436	      0.14931823	      4.72482657	      5.57616526	      0.00000000	     -2.45548099	     -2.44586984	    -20.08773085	     10.15305680	      0.17720427	      6.16221864	     13.28015052	      0.00000000	     -0.31261013	     -0.36957344	     -0.40691457	     25.04958311	    -11.13929418	     25.04958311	     77.92122982	     45.03671975	      0.00000000	      0.00000000	     25.04958311	    -11.13929418	     25.04958311	     77.92122982	     45.03671975	      0.00000000	      0.00000000
      0.01500000	      1.36248648	     -1.68394521	    -88.85003453	      1.22030365	      0.94220773	      0.31997415	     -2.97981254	     -6.21342919	    -19.19222203	      8.64366731	      0.15086045	      4.80459289	      5.78863087	      0.00000000	     -2.40182247	     -2.44264491	    -20.14168312	     10.20550767	      0.17811971	      6.17093979	     13.34972497	      0.00000000	     -0.29798908	     -0.40787456	     -0.38464016	     25.73916220	    -11.34123987	     25.73916220	     77.66757211	     45.03117516	      0.00000000	      0.00000000	     25.73916220	    -11.34123987	     25.73916220	     77.66757211	     45.03117516	      0.00000000	      0.00000000
      0.02000000	      1.30711532	     -1.71791215	    -88.84271872	      1.22034428	      0.94235468	      0.31981894	     -3.11038787	     -6.07928809	    -18.90285444	      8.39456598	      0.14651282	      4.60728238	      5.32681484	      0.00000000	     -2.45648210	     -2.47959728	    -20.02633931	     10.13309652	      0.17685590	      6.14732644	     13.19763972	      0.00000000	     -0.38430212	     -0.28147528	     -0.34831022	     26.71606403	    -11.62522823	     26.71606403	     77.31421265	     45.02325268	      0.00000000	      0.00000000	     26.71606403	    -11.62522823	     26.71606403	     77.31421265	     45.02325268	      0.00000000	      0.00000000
      0.02500000	      1.35546043	     -1.73415515	    -88.82437115	      1.22043480	      0.94234305	      0.31976076	     -3.07868087	     -6.17531784	    -19.06499519	      8.52062654	      0.14871299	      4.68234951	      5.54267595	      0.00000000	     -2.44494590	     -2.44044489	    -20.11476379	     10.19219297	      0.17788733	      6.17363612	     13.33746734	      0.00000000	     -0.44666239	     -0.28924733	     -0.36138291	     27.35712303	    -11.80504365	     27.35712303	     77.10847161	     45.01959751	      0.00000000	      0.00000000	     27.35712303	    -11.80504365	     27.35712303	     77.10847161	     45.01959751	      0.00000000	      0.00000000
      0.03000000	      1.31567739	     -1.63496799	    -88.79805471	      1.22046972	      0.94215825	      0.31976344	     -2.89787105	     -6.20512760	    -19.47037286	      8.66665429	      0.15126165	      4.71511557	      6.27191810	      0.00000000	     -2.31451230	     -2.49325212	    -20.09698425	     10.23610335	      0.17865371	      6.16269981	     13.30349446	      0.00000000	     -0.29384415	     -0.30167090	     -0.52746272	     28.09831928	    -12.01014762	     28.09831928	     76.87993665	     45.01569898	      0.00000000	      0.00000000	     28.09831928	    -12.01014762	     28.09831928	     76.87993665	     45.01569898	      0.00000000	      0.00000000
      0.03500000	      1.40991028	     -1.65721328	    -88.83113312	      1.22038254	      0.94214234	      0.31963527	     -2.84503905	     -6.34012445	    -19.49967221	      8.83991620	      0.15428564	      4.84925523	      6.25216923	      0.00000000	     -2.32721557	     -2.40223252	    -20.19982509	     10.25845726	      0.17904386	      6.17549544	     13.46009413	      0.00000000	     -0.34513238	     -0.46508159	     -0.44874193	     28.80530200	    -12.20055968	     28.80530200	     76.67979039	     45.01269848	      0.00000000	      0.00000000	     28.80530200	    -12.20055968	     28.80530200	     76.67979039	     45.01269848	      0.00000000	      0.00000000
